<svg xmlns="http://www.w3.org/2000/svg" width="25.051" height="25.562" viewBox="0 0 25.051 25.562">
  <g id="Google__G__Logo" transform="translate(1184.582 765.171)">
    <path id="Path_15840" data-name="Path 15840" d="M-1089.333-687.239v4.95h6.879a5.893,5.893,0,0,1-2.568,3.846l4.148,3.219a12.487,12.487,0,0,0,3.811-9.4,14.677,14.677,0,0,0-.232-2.614Z" transform="translate(-82.468 -67.475)" fill="#fff"/>
    <path id="Path_15841" data-name="Path 15841" d="M-1170.118-651.791l-.936.716-3.312,2.579h0a12.779,12.779,0,0,0,11.41,7.053,12.2,12.2,0,0,0,8.458-3.091l-4.148-3.219a7.613,7.613,0,0,1-4.311,1.232,7.63,7.63,0,0,1-7.157-5.263Z" transform="translate(-8.846 -98.166)" fill="#fff"/>
    <path id="Path_15842" data-name="Path 15842" d="M-1183.211-712.61a12.622,12.622,0,0,0-1.371,5.728,12.622,12.622,0,0,0,1.371,5.728c0,.012,4.253-3.3,4.253-3.3a7.655,7.655,0,0,1-.407-2.428,7.656,7.656,0,0,1,.407-2.428Z" transform="translate(0 -45.508)" fill="#fff"/>
    <path id="Path_15843" data-name="Path 15843" d="M-1162.955-760.082a6.973,6.973,0,0,1,4.892,1.906l3.66-3.66a12.261,12.261,0,0,0-8.552-3.335,12.758,12.758,0,0,0-11.41,7.053l4.252,3.3A7.631,7.631,0,0,1-1162.955-760.082Z" transform="translate(-8.846)" fill="#fff"/>
  </g>
</svg>
