<svg xmlns="http://www.w3.org/2000/svg" width="21.06" height="24.43" viewBox="0 0 21.06 24.43">
  <g id="headericon-peo" transform="translate(-1821 -28)">
    <g id="Ellipse_1" data-name="Ellipse 1" transform="translate(1826 28)" fill="#fff" stroke="#529a81" stroke-width="1.5">
      <circle cx="5" cy="5" r="5" stroke="none"/>
      <circle cx="5" cy="5" r="4.25" fill="none"/>
    </g>
    <g id="Path_30" data-name="Path 30" transform="translate(1821 39.914)" fill="#fff">
      <path d="M 18.83061599731445 11.7653751373291 C 18.0832347869873 11.76539516448975 17.10062599182129 11.54696464538574 15.96285533905029 11.29403495788574 C 14.3548755645752 10.93657493591309 12.53235530853271 10.5314245223999 10.52978515625 10.5314245223999 C 8.52741527557373 10.5314245223999 6.704844951629639 10.93656539916992 5.096825122833252 11.2940149307251 C 3.95899510383606 11.54693508148193 2.976335048675537 11.7653751373291 2.228935241699219 11.7653751373291 C 1.543905138969421 11.7653751373291 1.296425104141235 11.58122539520264 1.157345175743103 11.42078495025635 C 0.8870551586151123 11.10899448394775 0.7500051856040955 10.50720500946045 0.7500051856040955 9.632135391235352 C 0.7500051856040955 4.734514713287354 5.137195110321045 0.7500049471855164 10.52978515625 0.7500049471855164 C 15.9223747253418 0.7500049471855164 20.3095760345459 4.734514713287354 20.3095760345459 9.632135391235352 C 20.3095760345459 10.50701522827148 20.1724853515625 11.10875511169434 19.9021053314209 11.42063522338867 C 19.76297569274902 11.58113479614258 19.51544570922852 11.76535511016846 18.83061599731445 11.7653751373291 Z" stroke="none"/>
      <path d="M 10.52978515625 1.499995231628418 C 5.550745010375977 1.499995231628418 1.499994277954102 5.148055076599121 1.499994277954102 9.632135391235352 C 1.499994277954102 10.64191436767578 1.701105117797852 10.9030647277832 1.724044799804688 10.92951488494873 C 1.753955841064453 10.96402549743652 1.913105010986328 11.0153751373291 2.228935241699219 11.0153751373291 C 2.893974304199219 11.0153751373291 3.839385986328125 10.80522537231445 4.934085845947266 10.56188488006592 C 6.49831485748291 10.21416473388672 8.445065498352051 9.781425476074219 10.52978515625 9.781425476074219 C 12.61476516723633 9.781425476074219 14.56150531768799 10.21418476104736 16.12574577331543 10.56190490722656 C 17.2203254699707 10.80523490905762 18.16563415527344 11.0153751373291 18.83063507080078 11.0153751373291 C 19.14627456665039 11.0153751373291 19.3054256439209 10.96394538879395 19.33539581298828 10.92938423156738 C 19.35834503173828 10.90291500091553 19.5595645904541 10.64165496826172 19.5595645904541 9.632135391235352 C 19.5595645904541 5.148055076599121 15.50882530212402 1.499995231628418 10.52978515625 1.499995231628418 M 10.52978515625 -4.76837158203125e-06 C 16.3452262878418 -4.76837158203125e-06 21.0595645904541 4.312455177307129 21.0595645904541 9.632135391235352 C 21.0595645904541 14.95180511474609 16.3452262878418 11.28142547607422 10.52978515625 11.28142547607422 C 4.714344024658203 11.2814245223999 -7.62939453125e-06 14.95180320739746 -5.7220458984375e-06 9.632135391235352 C -5.7220458984375e-06 4.312455177307129 4.714345932006836 -4.76837158203125e-06 10.52978515625 -4.76837158203125e-06 Z" stroke="none" fill="#529a81"/>
    </g>
  </g>
</svg>
