<svg xmlns="http://www.w3.org/2000/svg" width="31.667" height="22.473" viewBox="0 0 31.667 22.473">
  <g id="email" transform="translate(-13.774 -18.088)">
    <path id="Path_23" data-name="Path 23" d="M55.433,38.52H30.454a2.848,2.848,0,0,0-2.844,2.844V57.149a2.851,2.851,0,0,0,2.844,2.844H55.433a2.851,2.851,0,0,0,2.844-2.844V41.364A2.848,2.848,0,0,0,55.433,38.52Zm1.316,18.988-7.806-7.283L56.8,44.1C56.78,57.917,56.852,57.13,56.749,57.508ZM42.944,53.033l-13.857-10.8v-.865A1.371,1.371,0,0,1,30.456,40H55.431A1.371,1.371,0,0,1,56.8,41.365v.865ZM29.085,44.1l7.86,6.125-7.806,7.283c-.1-.38-.031.4-.054-13.409ZM30.24,58.5l7.883-7.353,4.367,3.4a.738.738,0,0,0,.907,0l4.367-3.4L55.647,58.5c-.2.032-25.232.029-25.407,0Z" transform="translate(-13.336 -19.932)" fill="#fff" stroke="#fff" stroke-width="1"/>
  </g>
</svg>
