<svg xmlns="http://www.w3.org/2000/svg" width="42" height="32.682" viewBox="0 0 42 32.682">
  <g id="Group_739" data-name="Group 739" transform="translate(0 0)">
    <g id="Group_7728" data-name="Group 7728">
      <path id="Path_15855" data-name="Path 15855" d="M41.871,10.649a4.194,4.194,0,0,0-8.2,1.749c.058.323.158.638.242.966-1.43.854-2.841,1.7-4.255,2.542-.53.316-.75.26-1.057-.274q-2.3-3.994-4.609-7.987a.419.419,0,0,1,.071-.593,4.093,4.093,0,0,0,1.047-3.679,4.2,4.2,0,0,0-8.258,1.489,4.428,4.428,0,0,0,1.329,2.47c-.735,1.278-1.459,2.539-2.184,3.8q-1.308,2.273-2.618,4.544c-.264.458-.509.563-.876.344-1.476-.878-2.946-1.768-4.394-2.64a12.1,12.1,0,0,0,.271-1.473,4.2,4.2,0,1,0-5.311,3.8.484.484,0,0,1,.411.42q.614,3.13,1.241,6.257c.5,2.528,1,5.058,1.513,7.584a3.247,3.247,0,0,0,3.026,2.7c.318.028.641.016.962.016q11.046,0,22.091,0a3.287,3.287,0,0,0,3.455-2.724Q37.143,23.1,38.5,16.245a.6.6,0,0,1,.483-.557,4.183,4.183,0,0,0,2.893-5.039M21,2.679A1.511,1.511,0,1,1,19.49,4.19,1.511,1.511,0,0,1,21,2.679M4.2,13.138a1.511,1.511,0,1,1,1.511-1.511A1.511,1.511,0,0,1,4.2,13.138m31.115,4.667q-1.125,5.656-2.253,11.312c-.14.7-.2.763-.913.763H9.8c-.648,0-.726-.057-.849-.677Q7.6,22.454,6.264,15.7c-.014-.068-.02-.138-.037-.263,1.428.859,2.812,1.693,4.2,2.523a4.963,4.963,0,0,0,2.06.905,3.176,3.176,0,0,0,3.247-1.689c1.127-1.923,2.228-3.861,3.34-5.793q.763-1.326,1.526-2.651c.294-.509.522-.5.822.017l4.732,8.22a3.378,3.378,0,0,0,5.023,1.305l4.586-2.752c-.158.818-.3,1.55-.441,2.279m2.592-4.667a1.509,1.509,0,0,1-1.258-.674,1.386,1.386,0,0,1-.253-.821s0,0,0,0,0-.007,0-.011a1.511,1.511,0,1,1,1.511,1.511" transform="translate(-0.001 0)" fill="#fff"/>
    </g>
  </g>
</svg>
