<svg xmlns="http://www.w3.org/2000/svg" width="44" height="42.561" viewBox="0 0 44 42.561">
  <g id="Polygon_5" data-name="Polygon 5" fill="none">
    <path d="M20.111,5.437a2,2,0,0,1,3.778,0l3.157,9.084a2,2,0,0,0,1.837,1.343l9.537.248A2,2,0,0,1,39.6,19.688L31.97,25.633a2,2,0,0,0-.69,2.138L34,37.1a2,2,0,0,1-3.067,2.2l-7.789-5.452a2,2,0,0,0-2.294,0L13.064,39.3A2,2,0,0,1,10,37.1l2.723-9.328a2,2,0,0,0-.69-2.138L4.4,19.688A2,2,0,0,1,5.58,16.112l9.537-.248a2,2,0,0,0,1.837-1.343Z" stroke="none"/>
    <path d="M 22 9.139713287353516 L 19.78792190551758 15.50556945800781 C 19.45275115966797 16.47014999389648 18.8398323059082 17.29850006103516 18.01543235778809 17.90106964111328 C 17.19103240966797 18.5036506652832 16.21571159362793 18.83617973327637 15.19492149353027 18.86273002624512 L 8.448421478271484 19.03817176818848 L 13.8742618560791 23.26724052429199 C 14.66720199584961 23.8852710723877 15.24963188171387 24.71763038635254 15.5585823059082 25.67434120178223 C 15.86752128601074 26.63103103637695 15.88191223144531 27.64682960510254 15.60021209716797 28.61188125610352 L 13.6743049621582 35.20968627929688 L 19.1328010559082 31.3890495300293 C 19.97747230529785 30.79780960083008 20.96893119812012 30.48529052734375 22.00000190734863 30.48529052734375 C 23.03104209899902 30.48529052734375 24.02249145507812 30.79780006408691 24.86715126037598 31.38901901245117 L 30.32568359375 35.20966339111328 L 28.39978218078613 28.61186027526855 C 28.11808204650879 27.64680099487305 28.13248062133789 26.63101005554199 28.44143295288086 25.67432975769043 C 28.7503719329834 24.71763038635254 29.33280181884766 23.8852710723877 30.1257209777832 23.26725006103516 L 35.55159759521484 19.03816604614258 L 28.80509185791016 18.86273002624512 C 27.78429222106934 18.83617973327637 26.8089714050293 18.5036506652832 25.98458099365234 17.90108108520508 C 25.16018104553223 17.29850959777832 24.54726219177246 16.47017097473145 24.21208190917969 15.50559997558594 L 22 9.139713287353516 M 21.99999809265137 4.093143463134766 C 22.78897285461426 4.093143463134766 23.57794761657715 4.540985107421875 23.88919258117676 5.436672210693359 L 27.04587173461914 14.5208911895752 C 27.31912231445312 15.3072395324707 28.05088233947754 15.84210014343262 28.88307189941406 15.86374092102051 L 38.41971206665039 16.11173057556152 C 40.29632186889648 16.16053009033203 41.07784271240234 18.53446006774902 39.59723281860352 19.68849945068359 L 31.9699821472168 25.63340950012207 C 31.32355117797852 26.13725090026855 31.04995155334473 26.98450088500977 31.27960205078125 27.77126121520996 L 34.00258255004883 37.09968948364258 C 34.53195953369141 38.91321182250977 32.48358154296875 40.38193893432617 30.93585205078125 39.29861068725586 L 23.1468620300293 33.84677886962891 C 22.458251953125 33.36479187011719 21.54175186157227 33.36479187011719 20.85314178466797 33.84677886962891 L 13.06415176391602 39.29862213134766 C 11.51640701293945 40.3819465637207 9.468040466308594 38.9132080078125 9.997413635253906 37.09968948364258 L 12.72039222717285 27.77126121520996 C 12.95005226135254 26.98450088500977 12.67645263671875 26.13725090026855 12.03002166748047 25.63340950012207 L 4.40277099609375 19.68849945068359 C 2.922161102294922 18.53446960449219 3.703681945800781 16.16053009033203 5.580280303955078 16.11174011230469 L 15.1169319152832 15.86374092102051 C 15.94912147521973 15.84210014343262 16.68088150024414 15.3072395324707 16.95412254333496 14.5208911895752 L 20.11081123352051 5.436672210693359 C 20.42205238342285 4.540985107421875 21.21102523803711 4.093143463134766 21.99999809265137 4.093143463134766 Z" stroke="none" fill="#fff"/>
  </g>
</svg>
